<svg id="Layer_1" data-name="Layer 1" xmlns="http://www.w3.org/2000/svg" viewBox="0 0 216.26 39.02"><defs><style>.cls-1,.cls-8{fill:#ececeb;}.cls-2{font-size:12.48px;font-family:Arial-BoldMT, Arial;}.cls-3{font-weight:700;}.cls-4{font-family:ArialNarrow, Arial;}.cls-5{fill:#6c7585;}.cls-6{fill:#206cb5;}.cls-7{fill:#e0282a;}.cls-8{opacity:0.15;}</style></defs><title>NLS-directory</title><path class="cls-1" d="M11.2,51" transform="translate(-5.66 -31.51)"/><text class="cls-2" transform="translate(71.87 16.47)"><tspan class="cls-3">NLS-Directory</tspan><tspan class="cls-4"><tspan x="0" y="14.98">National Laser Sensor</tspan></tspan></text><polygon class="cls-5" points="17.39 0 33.39 0 16 39.02 0 39.02 17.39 0"/><polygon class="cls-6" points="36.13 0 52.13 0 34.74 39.02 18.74 39.02 36.13 0"/><polygon class="cls-7" points="54.88 0 70.87 0 53.48 39.02 37.48 39.02 54.88 0"/><path class="cls-8" d="M23.05,31.51H76.53A139.88,139.88,0,0,1,40.84,58,139.31,139.31,0,0,1,5.66,70.54Q14.35,51,23.05,31.51Z" transform="translate(-5.66 -31.51)"/></svg>